Coordinates
version=1
nRows=17
nColumns=24
inDegrees=yes

Units are S.I. units (second, meters, Newtons, ...)
Angles are in degrees.

endheader
time	pelvis_tilt	pelvis_list	pelvis_rotation	pelvis_tx	pelvis_ty	pelvis_tz	hip_flexion_r	hip_adduction_r	hip_rotation_r	knee_angle_r	ankle_angle_r	subtalar_angle_r	mtp_angle_r	hip_flexion_l	hip_adduction_l	hip_rotation_l	knee_angle_l	ankle_angle_l	subtalar_angle_l	mtp_angle_l	lumbar_extension	lumbar_bending	lumbar_rotation
      1.02900000	     -3.29501073	     -2.86247346	     -4.07637485	     -0.19327664	      0.97088268	      0.33005377	     -9.91281597	      6.07209588	     -5.51833160	     -9.84641385	     15.44463763	      1.28359552	      5.12322635	     25.72357734	     -2.34185498	     -5.12699544	      1.57983294	     -0.95872213	     -1.66399854	     -0.73985794	     -1.44297570	      5.92311074	      7.44572897
      1.03316667	     -3.33095553	     -2.79397998	     -4.14333410	     -0.18744225	      0.97027724	      0.32976806	     -9.94457044	      5.91309044	     -5.47527938	    -10.40898234	     15.50072635	      1.30267807	      5.08243037	     25.70896276	     -2.22911871	     -5.26440492	      1.59522492	     -1.20545844	     -1.87124461	     -0.70714134	     -1.39149959	      5.83280548	      7.46558130
      1.03733333	     -3.34691580	     -2.74753949	     -4.20707463	     -0.18154478	      0.96968850	      0.32943321	     -9.97876336	      5.76565134	     -5.47188634	    -11.02041136	     15.56867730	      1.35943571	      5.02635749	     25.59901295	     -2.14229363	     -5.14983355	      1.67291499	     -1.53566624	     -2.38769001	     -0.64653224	     -1.33917841	      5.78534702	      7.51323336
      1.04150000	     -3.38403837	     -2.63487593	     -4.25568459	     -0.17563617	      0.96922133	      0.32913466	     -9.98361156	      5.56244651	     -5.41207417	    -11.62235433	     15.55049969	      1.30192225	      5.00344555	     25.58169925	     -1.98484995	     -5.27161111	      1.54237282	     -1.84348421	     -2.61154639	     -0.61697622	     -1.26480806	      5.64028725	      7.49723936
      1.04566667	     -3.43808072	     -2.54502373	     -4.29252051	     -0.16975784	      0.96875625	      0.32878506	     -9.92498515	      5.37700951	     -5.40217935	    -12.31668474	     15.58179138	      1.29208936	      4.97613764	     25.58991798	     -1.84475935	     -5.26565601	      1.34762200	     -2.22210173	     -3.07607798	     -0.54648857	     -1.17000149	      5.54339027	      7.51797900
      1.04983333	     -3.49085594	     -2.43283812	     -4.31914531	     -0.16383864	      0.96835364	      0.32842956	     -9.85988066	      5.17247165	     -5.36611203	    -13.01792612	     15.53839508	      1.23139509	      4.96271983	     25.61027676	     -1.68267158	     -5.26122795	      1.07349120	     -2.63270908	     -3.50038997	     -0.47013151	     -1.07175358	      5.41182415	      7.51246269
      1.05400000	     -3.54017185	     -2.31952766	     -4.33380860	     -0.15790086	      0.96800045	      0.32805146	     -9.77717108	      4.96718738	     -5.33331049	    -13.75701790	     15.45887333	      1.14178435	      4.96537283	     25.63352114	     -1.51627697	     -5.20611128	      0.74065228	     -3.07049511	     -3.98344932	     -0.37220829	     -0.97635502	      5.27675981	      7.50105589
      1.05816667	     -3.60638687	     -2.19474822	     -4.33428059	     -0.15193241	      0.96767762	      0.32764453	     -9.65585870	      4.75142215	     -5.30939732	    -14.52932315	     15.31249188	      1.03187766	      5.00228608	     25.68337754	     -1.33444219	     -5.09898099	      0.34949147	     -3.53334521	     -4.53868045	     -0.18705300	     -0.85526116	      5.12464619	      7.48505981
      1.06233333	     -3.67664282	     -2.07494015	     -4.33221023	     -0.14596662	      0.96739230	      0.32723396	     -9.50076322	      4.54327100	     -5.26501800	    -15.35809211	     15.19126451	      0.88694758	      5.04799262	     25.75699477	     -1.16167286	     -5.01614309	     -0.10974355	     -4.04876724	     -5.01483480	     -0.06438063	     -0.72756370	      4.98722690	      7.45389997
      1.06650000	     -3.74173272	     -1.94402052	     -4.31206392	     -0.13997109	      0.96716383	      0.32680068	     -9.33248352	      4.32538535	     -5.23632308	    -16.21299721	     14.98744631	      0.71674961	      5.11578485	     25.82891969	     -0.97082967	     -4.88576638	     -0.60647384	     -4.57501564	     -5.54293653	      0.06620495	     -0.59966644	      4.82459811	      7.41666734
      1.07066667	     -3.80876511	     -1.81084294	     -4.28187906	     -0.13396048	      0.96697764	      0.32633534	     -9.13445120	      4.10465652	     -5.21151469	    -17.11510036	     14.73898635	      0.53173414	      5.21586043	     25.90809773	     -0.77336903	     -4.71866703	     -1.13868764	     -5.11075362	     -6.09408038	      0.21582613	     -0.46844977	      4.66315169	      7.37334609
      1.07483333	     -3.87930628	     -1.67190088	     -4.23697622	     -0.12792925	      0.96683118	      0.32584316	     -8.90909878	      3.88020065	     -5.18840715	    -18.05424128	     14.44366476	      0.32077836	      5.33957384	     26.00080346	     -0.56559086	     -4.54108847	     -1.70976675	     -5.65570397	     -6.62339357	      0.36596639	     -0.33232985	      4.49789256	      7.31749820
      1.07900000	     -3.94598840	     -1.52488071	     -4.18304913	     -0.12188024	      0.96673109	      0.32532887	     -8.65706727	      3.64507021	     -5.18064948	    -19.04383266	     14.09440841	      0.09960049	      5.50419108	     26.09150063	     -0.34544110	     -4.34019015	     -2.30400545	     -6.19477093	     -7.16576408	      0.53120026	     -0.19421436	      4.32042287	      7.25785765
      1.08316667	     -3.97771593	     -1.35585103	     -4.09922967	     -0.11576908	      0.96671453	      0.32474427	     -8.42646531	      3.37481509	     -5.24559990	    -20.04300851	     13.57217930	     -0.06704570	      8.64084957	     26.14389251	     -0.08677939	     -4.12497827	     -2.90739313	     -6.75593947	     -7.72553374	      3.13341838	     -0.09410019	      4.11344966	      7.17629521
      1.08733333	     -4.05197676	     -1.20007019	     -4.03749800	     -0.10970307	      0.96669185	      0.32421318	     -8.10339834	      3.13407525	     -5.20928965	    -21.13371656	     13.15136623	     -0.39589581	      8.69258708	     26.25563528	      0.14105361	     -3.94737230	     -3.55641768	     -7.25574741	     -8.15870124	      3.12792215	      0.05287043	      3.92833486	      7.11215461
      1.09150000	     -4.11739060	     -1.03478138	     -3.95454506	     -0.10360564	      0.96672208	      0.32362603	     -7.76392237	      2.87627129	     -5.21923935	    -22.25718075	     12.61768280	     -0.65997762	      8.78675828	     26.35424786	      0.39144525	     -3.73232818	     -4.21111319	     -7.72317389	     -8.61974509	      3.12998802	      0.19801284	      3.72670035	      7.03514691
      1.09566667	     -4.15741714	     -0.85571487	     -3.86052436	     -0.09748427	      0.96681518	      0.32301849	     -7.42227417	      2.59905899	     -5.24547048	    -23.42386740	     12.02403087	     -0.91645269	      8.91809327	     26.42021677	      0.66162704	     -3.51378249	     -4.86651019	     -8.15153369	     -9.05031554	      3.13620085	      0.31766795	      3.50577254	      6.94954711
